<svg width="56" height="57" viewBox="0 0 56 57" fill="none" xmlns="http://www.w3.org/2000/svg">
<path d="M52.5 26.75C52.4971 23.9661 51.3899 21.2971 49.4214 19.3286C47.4529 17.3601 44.7839 16.2529 42 16.25H33.2937C32.6572 16.2128 21.5644 15.4319 11.0009 6.57249C10.4908 6.14408 9.86905 5.87013 9.20865 5.78284C8.54824 5.69554 7.87665 5.79853 7.27274 6.07969C6.66884 6.36085 6.15771 6.80852 5.79941 7.3701C5.44111 7.93168 5.25051 8.58385 5.25 9.24999V44.25C5.25009 44.9163 5.44039 45.5688 5.79853 46.1307C6.15667 46.6926 6.66777 47.1406 7.27175 47.422C7.87574 47.7034 8.54751 47.8066 9.20811 47.7194C9.86871 47.6322 10.4907 47.3582 11.0009 46.9297C19.2631 39.9997 27.8447 38.0134 31.5 37.4578V44.3966C31.4993 44.9733 31.6411 45.5413 31.9128 46.05C32.1845 46.5587 32.5777 46.9924 33.0575 47.3125L35.4637 48.9159C35.9288 49.2264 36.4615 49.4208 37.0173 49.4831C37.573 49.5453 38.1355 49.4735 38.6577 49.2736C39.18 49.0738 39.6467 48.7517 40.0189 48.3344C40.3911 47.917 40.6578 47.4166 40.7969 46.875L43.3716 37.1712C45.8975 36.8352 48.2155 35.5932 49.8946 33.6764C51.5736 31.7596 52.4995 29.2982 52.5 26.75ZM8.75 44.2347V9.24999C18.1147 17.1053 27.7003 19.0937 31.5 19.5837V33.9075C27.7047 34.4062 18.1213 36.3903 8.75 44.2347ZM37.4062 45.9847V46.0087L35 44.4053V37.25H39.725L37.4062 45.9847ZM42 33.75H35V19.75H42C43.8565 19.75 45.637 20.4875 46.9497 21.8002C48.2625 23.113 49 24.8935 49 26.75C49 28.6065 48.2625 30.387 46.9497 31.6997C45.637 33.0125 43.8565 33.75 42 33.75Z" fill="#ED1C23"/>
</svg>
