<svg width="56" height="57" viewBox="0 0 56 57" fill="none" xmlns="http://www.w3.org/2000/svg">
<path d="M28 19.75C26.2694 19.75 24.5777 20.2632 23.1388 21.2246C21.6998 22.1861 20.5783 23.5527 19.9161 25.1515C19.2538 26.7504 19.0805 28.5097 19.4181 30.207C19.7557 31.9044 20.5891 33.4635 21.8128 34.6872C23.0365 35.9109 24.5956 36.7443 26.293 37.0819C27.9903 37.4195 29.7496 37.2462 31.3485 36.5839C32.9473 35.9217 34.3139 34.8002 35.2754 33.3612C36.2368 31.9223 36.75 30.2306 36.75 28.5C36.75 26.1794 35.8281 23.9538 34.1872 22.3128C32.5462 20.6719 30.3206 19.75 28 19.75ZM28 33.75C26.9616 33.75 25.9466 33.4421 25.0833 32.8652C24.2199 32.2883 23.547 31.4684 23.1496 30.5091C22.7523 29.5498 22.6483 28.4942 22.8509 27.4758C23.0534 26.4574 23.5535 25.5219 24.2877 24.7877C25.0219 24.0535 25.9574 23.5534 26.9758 23.3509C27.9942 23.1483 29.0498 23.2523 30.0091 23.6496C30.9684 24.047 31.7883 24.7199 32.3652 25.5833C32.9421 26.4466 33.25 27.4616 33.25 28.5C33.25 29.8924 32.6969 31.2277 31.7123 32.2123C30.7277 33.1969 29.3924 33.75 28 33.75ZM52.5 12.75H3.5C3.03587 12.75 2.59075 12.9344 2.26256 13.2626C1.93437 13.5908 1.75 14.0359 1.75 14.5V42.5C1.75 42.9641 1.93437 43.4093 2.26256 43.7374C2.59075 44.0656 3.03587 44.25 3.5 44.25H52.5C52.9641 44.25 53.4092 44.0656 53.7374 43.7374C54.0656 43.4093 54.25 42.9641 54.25 42.5V14.5C54.25 14.0359 54.0656 13.5908 53.7374 13.2626C53.4092 12.9344 52.9641 12.75 52.5 12.75ZM42.3609 40.75H13.6391C13.0515 38.7629 11.9761 36.9543 10.5109 35.4891C9.04566 34.0239 7.23712 32.9485 5.25 32.3609V24.6391C7.23712 24.0515 9.04566 22.9761 10.5109 21.5109C11.9761 20.0457 13.0515 18.2371 13.6391 16.25H42.3609C42.9485 18.2371 44.0239 20.0457 45.4891 21.5109C46.9543 22.9761 48.7629 24.0515 50.75 24.6391V32.3609C48.7629 32.9485 46.9543 34.0239 45.4891 35.4891C44.0239 36.9543 42.9485 38.7629 42.3609 40.75ZM50.75 20.9247C48.651 20.0221 46.9779 18.349 46.0753 16.25H50.75V20.9247ZM9.92469 16.25C9.02211 18.349 7.34904 20.0221 5.25 20.9247V16.25H9.92469ZM5.25 36.0753C7.34904 36.9779 9.02211 38.651 9.92469 40.75H5.25V36.0753ZM46.0753 40.75C46.9779 38.651 48.651 36.9779 50.75 36.0753V40.75H46.0753Z" fill="#ED1C23"/>
</svg>
