<svg width="56" height="57" viewBox="0 0 56 57" fill="none" xmlns="http://www.w3.org/2000/svg">
<path d="M49 11H7C6.07174 11 5.1815 11.3687 4.52513 12.0251C3.86875 12.6815 3.5 13.5717 3.5 14.5V42.5C3.5 43.4283 3.86875 44.3185 4.52513 44.9749C5.1815 45.6312 6.07174 46 7 46H49C49.9283 46 50.8185 45.6312 51.4749 44.9749C52.1312 44.3185 52.5 43.4283 52.5 42.5V14.5C52.5 13.5717 52.1312 12.6815 51.4749 12.0251C50.8185 11.3687 49.9283 11 49 11ZM49 14.5V19.75H7V14.5H49ZM49 42.5H7V23.25H49V42.5ZM45.5 37.25C45.5 37.7141 45.3156 38.1592 44.9874 38.4874C44.6592 38.8156 44.2141 39 43.75 39H36.75C36.2859 39 35.8407 38.8156 35.5126 38.4874C35.1844 38.1592 35 37.7141 35 37.25C35 36.7859 35.1844 36.3407 35.5126 36.0126C35.8407 35.6844 36.2859 35.5 36.75 35.5H43.75C44.2141 35.5 44.6592 35.6844 44.9874 36.0126C45.3156 36.3407 45.5 36.7859 45.5 37.25ZM31.5 37.25C31.5 37.7141 31.3156 38.1592 30.9874 38.4874C30.6592 38.8156 30.2141 39 29.75 39H26.25C25.7859 39 25.3408 38.8156 25.0126 38.4874C24.6844 38.1592 24.5 37.7141 24.5 37.25C24.5 36.7859 24.6844 36.3407 25.0126 36.0126C25.3408 35.6844 25.7859 35.5 26.25 35.5H29.75C30.2141 35.5 30.6592 35.6844 30.9874 36.0126C31.3156 36.3407 31.5 36.7859 31.5 37.25Z" fill="#ED1C23"/>
</svg>
