<svg width="56" height="57" viewBox="0 0 56 57" fill="none" xmlns="http://www.w3.org/2000/svg">
<path d="M28 14.5C26.2694 14.5 24.5777 15.0132 23.1388 15.9746C21.6998 16.9361 20.5783 18.3027 19.9161 19.9015C19.2538 21.5004 19.0805 23.2597 19.4181 24.957C19.7557 26.6544 20.5891 28.2135 21.8128 29.4372C23.0365 30.6609 24.5956 31.4942 26.293 31.8319C27.9903 32.1695 29.7496 31.9962 31.3485 31.3339C32.9473 30.6717 34.3139 29.5502 35.2754 28.1112C36.2368 26.6723 36.75 24.9806 36.75 23.25C36.75 20.9294 35.8281 18.7038 34.1872 17.0628C32.5462 15.4219 30.3206 14.5 28 14.5ZM28 28.5C26.9616 28.5 25.9466 28.1921 25.0833 27.6152C24.2199 27.0383 23.547 26.2184 23.1496 25.2591C22.7523 24.2998 22.6483 23.2442 22.8509 22.2258C23.0534 21.2074 23.5535 20.2719 24.2877 19.5377C25.0219 18.8035 25.9574 18.3034 26.9758 18.1009C27.9942 17.8983 29.0498 18.0023 30.0091 18.3996C30.9684 18.797 31.7883 19.4699 32.3652 20.3333C32.9421 21.1966 33.25 22.2116 33.25 23.25C33.25 24.6424 32.6969 25.9777 31.7123 26.9623C30.7277 27.9469 29.3924 28.5 28 28.5ZM28 4C22.8964 4.00579 18.0034 6.03577 14.3946 9.64459C10.7858 13.2534 8.75579 18.1464 8.75 23.25C8.75 30.1187 11.9241 37.3987 17.9375 44.3047C20.6395 47.4253 23.6807 50.2353 27.0047 52.6828C27.2989 52.8889 27.6495 52.9995 28.0087 52.9995C28.368 52.9995 28.7186 52.8889 29.0128 52.6828C32.3307 50.2343 35.3659 47.4243 38.0625 44.3047C44.0672 37.3987 47.25 30.1187 47.25 23.25C47.2442 18.1464 45.2142 13.2534 41.6054 9.64459C37.9966 6.03577 33.1036 4.00579 28 4ZM28 49.0625C24.3841 46.2187 12.25 35.7734 12.25 23.25C12.25 19.0728 13.9094 15.0668 16.8631 12.1131C19.8168 9.15937 23.8228 7.5 28 7.5C32.1772 7.5 36.1832 9.15937 39.1369 12.1131C42.0906 15.0668 43.75 19.0728 43.75 23.25C43.75 35.7691 31.6159 46.2187 28 49.0625Z" fill="#ED1C23"/>
</svg>
