<svg width="56" height="57" viewBox="0 0 56 57" fill="none" xmlns="http://www.w3.org/2000/svg">
<path d="M47.25 9.25H8.75C7.82174 9.25 6.9315 9.61875 6.27513 10.2751C5.61875 10.9315 5.25 11.8217 5.25 12.75V46C5.25016 46.2983 5.32655 46.5915 5.47192 46.852C5.61729 47.1124 5.82682 47.3314 6.08061 47.4881C6.33439 47.6448 6.62402 47.734 6.92199 47.7473C7.21996 47.7606 7.51639 47.6975 7.78313 47.5641L14 44.4556L20.2169 47.5641C20.46 47.6857 20.7281 47.7491 21 47.7491C21.2719 47.7491 21.54 47.6857 21.7831 47.5641L28 44.4556L34.2169 47.5641C34.46 47.6857 34.7281 47.7491 35 47.7491C35.2719 47.7491 35.54 47.6857 35.7831 47.5641L42 44.4556L48.2169 47.5641C48.4836 47.6975 48.78 47.7606 49.078 47.7473C49.376 47.734 49.6656 47.6448 49.9194 47.4881C50.1732 47.3314 50.3827 47.1124 50.5281 46.852C50.6734 46.5915 50.7498 46.2983 50.75 46V12.75C50.75 11.8217 50.3813 10.9315 49.7249 10.2751C49.0685 9.61875 48.1783 9.25 47.25 9.25ZM47.25 43.1694L42.7831 40.9337C42.54 40.8121 42.2719 40.7487 42 40.7487C41.7281 40.7487 41.46 40.8121 41.2169 40.9337L35 44.0444L28.7831 40.9337C28.54 40.8121 28.2719 40.7487 28 40.7487C27.7281 40.7487 27.46 40.8121 27.2169 40.9337L21 44.0444L14.7831 40.9337C14.54 40.8121 14.2719 40.7487 14 40.7487C13.7281 40.7487 13.46 40.8121 13.2169 40.9337L8.75 43.1694V12.75H47.25V43.1694ZM21.5119 30.7619L25.5259 26.75L21.5119 22.7381C21.1835 22.4098 20.999 21.9644 20.999 21.5C20.999 21.0356 21.1835 20.5902 21.5119 20.2619C21.8402 19.9335 22.2856 19.749 22.75 19.749C23.2144 19.749 23.6598 19.9335 23.9881 20.2619L28 24.2759L32.0119 20.2619C32.1745 20.0993 32.3675 19.9703 32.5799 19.8823C32.7924 19.7943 33.0201 19.749 33.25 19.749C33.4799 19.749 33.7076 19.7943 33.9201 19.8823C34.1325 19.9703 34.3255 20.0993 34.4881 20.2619C34.6507 20.4245 34.7797 20.6175 34.8677 20.8299C34.9557 21.0424 35.001 21.2701 35.001 21.5C35.001 21.7299 34.9557 21.9576 34.8677 22.1701C34.7797 22.3825 34.6507 22.5755 34.4881 22.7381L30.4741 26.75L34.4881 30.7619C34.6507 30.9245 34.7797 31.1175 34.8677 31.3299C34.9557 31.5424 35.001 31.7701 35.001 32C35.001 32.2299 34.9557 32.4576 34.8677 32.6701C34.7797 32.8825 34.6507 33.0755 34.4881 33.2381C34.3255 33.4007 34.1325 33.5297 33.9201 33.6177C33.7076 33.7057 33.4799 33.751 33.25 33.751C33.0201 33.751 32.7924 33.7057 32.5799 33.6177C32.3675 33.5297 32.1745 33.4007 32.0119 33.2381L28 29.2241L23.9881 33.2381C23.8255 33.4007 23.6325 33.5297 23.4201 33.6177C23.2076 33.7057 22.9799 33.751 22.75 33.751C22.5201 33.751 22.2924 33.7057 22.0799 33.6177C21.8675 33.5297 21.6745 33.4007 21.5119 33.2381C21.3493 33.0755 21.2203 32.8825 21.1323 32.6701C21.0443 32.4576 20.999 32.2299 20.999 32C20.999 31.7701 21.0443 31.5424 21.1323 31.3299C21.2203 31.1175 21.3493 30.9245 21.5119 30.7619Z" fill="#ED1C23"/>
</svg>
