<svg width="56" height="57" viewBox="0 0 56 57" fill="none" xmlns="http://www.w3.org/2000/svg">
<path d="M45.5 9.25H10.5C9.57174 9.25 8.6815 9.61875 8.02513 10.2751C7.36875 10.9315 7 11.8217 7 12.75V25.6059C7 45.2081 23.5856 51.7116 26.9062 52.8163C27.6155 53.0574 28.3845 53.0574 29.0938 52.8163C32.4187 51.7116 49 45.2081 49 25.6059V12.75C49 11.8217 48.6313 10.9315 47.9749 10.2751C47.3185 9.61875 46.4283 9.25 45.5 9.25ZM28 49.5C25.9744 48.8263 18.5303 45.93 14.0284 38.6719L28 28.885L41.9716 38.6653C37.4741 45.9147 30.0431 48.8109 28 49.5ZM45.5 25.6169C45.5 29.4756 44.765 32.7547 43.5925 35.535L29.0041 25.3238C28.7098 25.1176 28.3593 25.0071 28 25.0071C27.6407 25.0071 27.2902 25.1176 26.9959 25.3238L12.4075 35.5284C11.235 32.7481 10.5 29.4691 10.5 25.6103V12.75H45.5V25.6169Z" fill="#ED1C23"/>
</svg>
