<svg width="56" height="57" viewBox="0 0 56 57" fill="none" xmlns="http://www.w3.org/2000/svg">
<path d="M19.25 25C19.25 24.5359 19.4344 24.0908 19.7626 23.7626C20.0908 23.4344 20.5359 23.25 21 23.25H38.5C38.9641 23.25 39.4092 23.4344 39.7374 23.7626C40.0656 24.0908 40.25 24.5359 40.25 25C40.25 25.4641 40.0656 25.9092 39.7374 26.2374C39.4092 26.5656 38.9641 26.75 38.5 26.75H21C20.5359 26.75 20.0908 26.5656 19.7626 26.2374C19.4344 25.9092 19.25 25.4641 19.25 25ZM21 33.75H38.5C38.9641 33.75 39.4092 33.5656 39.7374 33.2374C40.0656 32.9092 40.25 32.4641 40.25 32C40.25 31.5359 40.0656 31.0908 39.7374 30.7626C39.4092 30.4344 38.9641 30.25 38.5 30.25H21C20.5359 30.25 20.0908 30.4344 19.7626 30.7626C19.4344 31.0908 19.25 31.5359 19.25 32C19.25 32.4641 19.4344 32.9092 19.7626 33.2374C20.0908 33.5656 20.5359 33.75 21 33.75ZM50.75 14.5V40.75C50.75 42.1424 50.1969 43.4777 49.2123 44.4623C48.2277 45.4469 46.8924 46 45.5 46H7C5.61177 46 4.28005 45.4502 3.29617 44.4708C2.31229 43.4915 1.75636 42.1623 1.75 40.7741V19.75C1.75 19.2859 1.93437 18.8408 2.26256 18.5126C2.59075 18.1844 3.03587 18 3.5 18C3.96413 18 4.40925 18.1844 4.73744 18.5126C5.06563 18.8408 5.25 19.2859 5.25 19.75V40.75C5.25 41.2141 5.43437 41.6592 5.76256 41.9874C6.09075 42.3156 6.53587 42.5 7 42.5C7.46413 42.5 7.90925 42.3156 8.23744 41.9874C8.56563 41.6592 8.75 41.2141 8.75 40.75V14.5C8.75 13.5717 9.11875 12.6815 9.77513 12.0251C10.4315 11.3687 11.3217 11 12.25 11H47.25C48.1783 11 49.0685 11.3687 49.7249 12.0251C50.3813 12.6815 50.75 13.5717 50.75 14.5ZM47.25 14.5H12.25V40.75C12.2509 41.3462 12.1495 41.9381 11.9503 42.5H45.5C45.9641 42.5 46.4092 42.3156 46.7374 41.9874C47.0656 41.6592 47.25 41.2141 47.25 40.75V14.5Z" fill="#ED1C23"/>
</svg>
