<svg width="56" height="57" viewBox="0 0 56 57" fill="none" xmlns="http://www.w3.org/2000/svg">
<path d="M50.75 46C50.75 46.4641 50.5656 46.9092 50.2374 47.2374C49.9092 47.5656 49.4641 47.75 49 47.75H7C6.53587 47.75 6.09075 47.5656 5.76256 47.2374C5.43437 46.9092 5.25 46.4641 5.25 46V11C5.25 10.5359 5.43437 10.0908 5.76256 9.76256C6.09075 9.43437 6.53587 9.25 7 9.25C7.46413 9.25 7.90925 9.43437 8.23744 9.76256C8.56563 10.0908 8.75 10.5359 8.75 11V31.6434L19.8472 21.9375C20.1492 21.6732 20.5328 21.5206 20.9339 21.5055C21.3349 21.4904 21.729 21.6135 22.05 21.8544L34.9147 31.5034L47.8472 20.1875C48.0168 20.0196 48.2189 19.8882 48.4411 19.8014C48.6633 19.7145 48.9009 19.674 49.1394 19.6823C49.3778 19.6906 49.612 19.7476 49.8276 19.8497C50.0433 19.9519 50.2357 20.0971 50.3932 20.2763C50.5506 20.4556 50.6697 20.6652 50.7432 20.8922C50.8167 21.1192 50.843 21.3588 50.8205 21.5963C50.798 21.8338 50.7272 22.0643 50.6123 22.2734C50.4975 22.4825 50.3411 22.666 50.1528 22.8125L36.1528 35.0625C35.8508 35.3268 35.4672 35.4794 35.0661 35.4945C34.6651 35.5096 34.271 35.3865 33.95 35.1456L21.0853 25.5009L8.75 36.2941V44.25H49C49.4641 44.25 49.9092 44.4344 50.2374 44.7626C50.5656 45.0908 50.75 45.5359 50.75 46Z" fill="#ED1C23"/>
</svg>
