<svg width="56" height="57" viewBox="0 0 56 57" fill="none" xmlns="http://www.w3.org/2000/svg">
<path d="M15.75 28.5C15.7625 33.0904 14.7018 37.6202 12.6525 41.7278C12.5547 41.9408 12.4151 42.1319 12.242 42.2899C12.0689 42.4479 11.8658 42.5695 11.6449 42.6475C11.4239 42.7255 11.1895 42.7584 10.9555 42.7441C10.7216 42.7298 10.493 42.6687 10.2831 42.5643C10.0733 42.46 9.88652 42.3146 9.73394 42.1367C9.58136 41.9588 9.46607 41.7521 9.3949 41.5288C9.32372 41.3055 9.29812 41.0702 9.31961 40.8369C9.3411 40.6035 9.40925 40.3768 9.52 40.1703C11.3269 36.5461 12.2617 32.5497 12.25 28.5C12.2459 26.1385 12.7749 23.8065 13.7975 21.6778C14.8202 19.5492 16.3101 17.6789 18.1563 16.2062C18.5186 15.9162 18.9813 15.7819 19.4426 15.833C19.9039 15.884 20.326 16.1163 20.6161 16.4786C20.9062 16.8409 21.0405 17.3036 20.9894 17.7649C20.9383 18.2262 20.7061 18.6484 20.3438 18.9384C18.9075 20.0835 17.7485 21.5381 16.953 23.1937C16.1576 24.8493 15.7464 26.6632 15.75 28.5ZM28 26.75C27.5359 26.75 27.0908 26.9344 26.7626 27.2626C26.4344 27.5907 26.25 28.0359 26.25 28.5C26.2497 35.318 24.5185 42.0243 21.2188 47.9906C20.9937 48.3967 20.9391 48.8756 21.0671 49.322C21.1951 49.7683 21.4951 50.1455 21.9013 50.3706C22.3074 50.5957 22.7863 50.6503 23.2326 50.5223C23.6789 50.3943 24.0562 50.0942 24.2813 49.6881C27.8678 43.202 29.7495 35.9117 29.75 28.5C29.75 28.0359 29.5656 27.5907 29.2374 27.2626C28.9093 26.9344 28.4641 26.75 28 26.75ZM28 19.75C25.6794 19.75 23.4538 20.6719 21.8128 22.3128C20.1719 23.9538 19.25 26.1794 19.25 28.5C19.25 28.9641 19.4344 29.4092 19.7626 29.7374C20.0908 30.0656 20.5359 30.25 21 30.25C21.4641 30.25 21.9093 30.0656 22.2374 29.7374C22.5656 29.4092 22.75 28.9641 22.75 28.5C22.75 27.1076 23.3031 25.7723 24.2877 24.7877C25.2723 23.8031 26.6076 23.25 28 23.25C29.3924 23.25 30.7278 23.8031 31.7123 24.7877C32.6969 25.7723 33.25 27.1076 33.25 28.5C33.2682 35.4583 31.7355 42.3333 28.7634 48.625C28.6653 48.8334 28.6093 49.0591 28.5984 49.2892C28.5875 49.5193 28.622 49.7493 28.7 49.966C28.778 50.1827 28.898 50.382 29.053 50.5524C29.208 50.7228 29.395 50.861 29.6034 50.9591C29.8119 51.0572 30.0375 51.1132 30.2676 51.1241C30.4977 51.135 30.7277 51.1005 30.9444 51.0225C31.1612 50.9445 31.3604 50.8245 31.5308 50.6695C31.7012 50.5145 31.8394 50.3275 31.9375 50.1191C35.1276 43.3596 36.7716 35.9744 36.75 28.5C36.75 26.1794 35.8281 23.9538 34.1872 22.3128C32.5462 20.6719 30.3207 19.75 28 19.75ZM28 5.75C21.9683 5.75637 16.1854 8.15528 11.9204 12.4204C7.65529 16.6854 5.25637 22.4683 5.25 28.5C5.25325 30.6853 4.88335 32.8551 4.15625 34.9159C4.00164 35.3537 4.02725 35.8349 4.22744 36.2537C4.42764 36.6726 4.78602 36.9948 5.22375 37.1494C5.66148 37.304 6.14271 37.2784 6.56156 37.0782C6.98041 36.878 7.30258 36.5196 7.45719 36.0819C8.31573 33.6464 8.75292 31.0824 8.75 28.5C8.75 23.3946 10.7781 18.4983 14.3882 14.8882C17.9983 11.2781 22.8946 9.25 28 9.25C33.1054 9.25 38.0017 11.2781 41.6118 14.8882C45.2219 18.4983 47.25 23.3946 47.25 28.5C47.2509 32.4984 46.8633 36.4875 46.0928 40.4109C46.0482 40.6364 46.0485 40.8685 46.0937 41.0939C46.1388 41.3193 46.2279 41.5336 46.3559 41.7246C46.4839 41.9155 46.6482 42.0794 46.8395 42.2068C47.0309 42.3342 47.2454 42.4227 47.4709 42.4672C47.5827 42.4888 47.6962 42.4998 47.81 42.5C48.215 42.4996 48.6073 42.3587 48.92 42.1014C49.2327 41.8441 49.4465 41.4864 49.525 41.0891C50.3399 36.9423 50.7502 32.7261 50.75 28.5C50.7431 22.4685 48.344 16.6859 44.079 12.421C39.8141 8.15605 34.0315 5.75695 28 5.75ZM20.65 33.7872C20.1961 33.6969 19.725 33.7901 19.3396 34.0463C18.9543 34.3025 18.6861 34.7009 18.5938 35.1544C17.8837 38.6492 16.6123 42.006 14.8291 45.0944C14.597 45.4964 14.5342 45.9742 14.6544 46.4226C14.7746 46.871 15.068 47.2532 15.47 47.4853C15.8721 47.7174 16.3498 47.7802 16.7982 47.66C17.2466 47.5398 17.6289 47.2464 17.8609 46.8444C19.8316 43.4292 21.2353 39.7169 22.0172 35.8522C22.0632 35.6268 22.0643 35.3946 22.0204 35.1688C21.9766 34.943 21.8887 34.728 21.7617 34.5363C21.6347 34.3445 21.4712 34.1796 21.2804 34.0511C21.0897 33.9225 20.8754 33.8329 20.65 33.7872ZM28 12.75C27.3419 12.7501 26.6843 12.7911 26.0313 12.8725C25.5794 12.9403 25.1719 13.1822 24.896 13.5465C24.6201 13.9108 24.4977 14.3685 24.5548 14.8219C24.6119 15.2753 24.8441 15.6883 25.2018 15.9728C25.5594 16.2572 26.0142 16.3905 26.4688 16.3441C28.1928 16.1297 29.9426 16.2839 31.6026 16.7966C33.2625 17.3093 34.7946 18.1686 36.0975 19.3178C37.4003 20.4671 38.4443 21.8799 39.1601 23.4628C39.876 25.0458 40.2475 26.7627 40.25 28.5C40.2495 30.7669 40.1092 33.0316 39.83 35.2812C39.7993 35.51 39.8142 35.7426 39.8738 35.9656C39.9333 36.1886 40.0364 36.3977 40.1771 36.5807C40.3178 36.7637 40.4934 36.917 40.6936 37.0319C40.8938 37.1468 41.1148 37.2209 41.3438 37.25C41.4163 37.2587 41.4894 37.2631 41.5625 37.2631C41.9881 37.2622 42.3988 37.1062 42.7177 36.8244C43.0366 36.5425 43.2418 36.1541 43.295 35.7319C43.5901 33.337 43.7362 30.9261 43.7325 28.5131C43.7314 24.3381 42.0744 20.334 39.1251 17.379C36.1759 14.424 32.175 12.7593 28 12.75ZM40.6722 40.8047C40.4496 40.7471 40.2178 40.734 39.9901 40.7661C39.7623 40.7981 39.5432 40.8747 39.3451 40.9916C39.147 41.1084 38.9739 41.2631 38.8357 41.4468C38.6974 41.6306 38.5967 41.8398 38.5394 42.0625C38.22 43.3072 37.8503 44.5562 37.4456 45.7812C37.2975 46.2202 37.3295 46.6999 37.5345 47.1153C37.7396 47.5306 38.1009 47.8478 38.5394 47.9972C38.719 48.0583 38.9075 48.0893 39.0972 48.0891C39.4639 48.0888 39.8212 47.9733 40.1187 47.759C40.4162 47.5447 40.6389 47.2424 40.7553 46.8947C41.1928 45.5997 41.5844 44.2697 41.9256 42.9462C41.9843 42.7236 41.9984 42.4916 41.9673 42.2635C41.9361 42.0354 41.8602 41.8156 41.744 41.6169C41.6277 41.4182 41.4734 41.2443 41.2899 41.1053C41.1064 40.9663 40.8972 40.8649 40.6744 40.8069L40.6722 40.8047Z" fill="#ED1C23"/>
</svg>
