<svg width="56" height="57" viewBox="0 0 56 57" fill="none" xmlns="http://www.w3.org/2000/svg">
<path d="M26.25 30.25V18C26.25 17.5359 26.4344 17.0907 26.7626 16.7626C27.0908 16.4344 27.5359 16.25 28 16.25C28.4642 16.25 28.9093 16.4344 29.2375 16.7626C29.5656 17.0907 29.75 17.5359 29.75 18V30.25C29.75 30.7141 29.5656 31.1592 29.2375 31.4874C28.9093 31.8156 28.4642 32 28 32C27.5359 32 27.0908 31.8156 26.7626 31.4874C26.4344 31.1592 26.25 30.7141 26.25 30.25ZM50.75 20.5266V36.4734C50.7515 36.9332 50.6615 37.3887 50.4854 37.8135C50.3093 38.2382 50.0505 38.6237 49.7241 38.9475L38.4475 50.2241C38.1237 50.5505 37.7382 50.8093 37.3135 50.9854C36.8888 51.1615 36.4333 51.2515 35.9735 51.25H20.0266C19.5668 51.2515 19.1113 51.1615 18.6866 50.9854C18.2618 50.8093 17.8763 50.5505 17.5525 50.2241L6.27596 38.9475C5.94954 38.6237 5.69074 38.2382 5.51462 37.8135C5.33849 37.3887 5.24855 36.9332 5.25002 36.4734V20.5266C5.24855 20.0668 5.33849 19.6113 5.51462 19.1865C5.69074 18.7618 5.94954 18.3763 6.27596 18.0525L17.5525 6.77592C17.8763 6.44951 18.2618 6.19071 18.6866 6.01459C19.1113 5.83846 19.5668 5.74852 20.0266 5.74999H35.9735C36.4333 5.74852 36.8888 5.83846 37.3135 6.01459C37.7382 6.19071 38.1237 6.44951 38.4475 6.77592L49.7241 18.0525C50.0505 18.3763 50.3093 18.7618 50.4854 19.1865C50.6615 19.6113 50.7515 20.0668 50.75 20.5266ZM47.25 20.5266L35.9735 9.24999H20.0266L8.75002 20.5266V36.4734L20.0266 47.75H35.9735L47.25 36.4734V20.5266ZM28 35.5C27.4808 35.5 26.9733 35.6539 26.5417 35.9424C26.11 36.2308 25.7735 36.6408 25.5748 37.1204C25.3762 37.6001 25.3242 38.1279 25.4255 38.6371C25.5267 39.1463 25.7768 39.614 26.1439 39.9811C26.511 40.3483 26.9787 40.5983 27.4879 40.6996C27.9971 40.8008 28.5249 40.7489 29.0046 40.5502C29.4842 40.3515 29.8942 40.015 30.1826 39.5834C30.4711 39.1517 30.625 38.6442 30.625 38.125C30.625 37.4288 30.3485 36.7611 29.8562 36.2688C29.3639 35.7766 28.6962 35.5 28 35.5Z" fill="#ED1C23"/>
</svg>
