<svg width="40" height="40" viewBox="0 0 40 40" fill="none" xmlns="http://www.w3.org/2000/svg">
<path d="M38.6547 10.7719C38.5601 10.5435 38.4 10.3482 38.1944 10.2108C37.9889 10.0734 37.7472 10.0001 37.5 10H32.7453C32.0805 8.86905 31.1345 7.92933 29.999 7.27222C28.8636 6.6151 27.5774 6.26296 26.2656 6.25002C25.2883 6.2372 24.3183 6.41998 23.4127 6.7876C22.507 7.15522 21.6841 7.70026 20.9922 8.39065C20.2801 9.08943 19.7149 9.92353 19.3299 10.8439C18.9448 11.7643 18.7477 12.7523 18.75 13.75V14.7016C12.4594 13.0422 7.31406 7.92502 7.25937 7.87033C7.09167 7.70115 6.87912 7.5834 6.64675 7.53097C6.41437 7.47853 6.17185 7.49359 5.94775 7.57437C5.72364 7.65514 5.52728 7.79827 5.3818 7.9869C5.23631 8.17554 5.14776 8.40181 5.12656 8.63908C4.45312 16.1063 6.62187 21.1031 8.56406 23.9797C9.51106 25.4017 10.6631 26.6759 11.9828 27.761C9.60312 30.5 5.85625 31.9391 5.81562 31.9547C5.63924 32.0208 5.48006 32.1258 5.34999 32.2621C5.21992 32.3983 5.12232 32.5621 5.06447 32.7414C5.00662 32.9206 4.99003 33.1106 5.01594 33.2972C5.04184 33.4838 5.10957 33.6621 5.21406 33.8188C5.33125 33.9938 5.8 34.6078 6.94531 35.1813C8.36094 35.8906 10.2312 36.25 12.5 36.25C23.5422 36.25 32.7688 27.7469 33.7109 16.8063L38.3844 12.1344C38.5591 11.9595 38.6781 11.7367 38.7262 11.4941C38.7743 11.2516 38.7494 11.0003 38.6547 10.7719ZM31.6234 15.3672C31.4091 15.582 31.2803 15.8675 31.2609 16.1703C30.625 26.0281 22.3875 33.75 12.5 33.75C10.85 33.75 9.6875 33.5313 8.87187 33.2688C10.6703 32.2922 13.1781 30.6125 14.7906 28.1938C14.8853 28.0515 14.9497 27.8914 14.9801 27.7233C15.0104 27.5552 15.006 27.3826 14.967 27.2163C14.9281 27.05 14.8555 26.8934 14.7536 26.7562C14.6518 26.619 14.5229 26.5042 14.375 26.4188C14.3016 26.3766 7.51406 22.3031 7.5 11.4188C10 13.45 14.5703 16.6016 19.7922 17.4797C19.9712 17.5099 20.1545 17.5007 20.3296 17.4529C20.5047 17.405 20.6672 17.3196 20.806 17.2026C20.9447 17.0856 21.0563 16.9397 21.133 16.7752C21.2096 16.6107 21.2496 16.4315 21.25 16.25V13.75C21.2486 13.0832 21.3806 12.4229 21.6382 11.8078C21.8958 11.1928 22.2738 10.6355 22.75 10.1688C23.2065 9.71142 23.75 9.35023 24.3485 9.10655C24.947 8.86286 25.5882 8.74163 26.2344 8.75002C28.2125 8.77502 30.0609 9.98127 30.8344 11.7516C30.9319 11.9742 31.0921 12.1635 31.2955 12.2964C31.499 12.4293 31.7367 12.5001 31.9797 12.5H34.4797L31.6234 15.3672Z" fill="#0E1D29"/>
</svg>
