<svg width="24" height="24" viewBox="0 0 24 24" fill="none" xmlns="http://www.w3.org/2000/svg">
<path d="M19.2806 18.2198C19.3503 18.2895 19.4056 18.3722 19.4433 18.4632C19.481 18.5543 19.5004 18.6519 19.5004 18.7504C19.5004 18.849 19.481 18.9465 19.4433 19.0376C19.4056 19.1286 19.3503 19.2114 19.2806 19.281C19.2109 19.3507 19.1282 19.406 19.0372 19.4437C18.9461 19.4814 18.8485 19.5008 18.75 19.5008C18.6515 19.5008 18.5539 19.4814 18.4628 19.4437C18.3718 19.406 18.2891 19.3507 18.2194 19.281L12 13.0607L5.78063 19.281C5.6399 19.4218 5.44902 19.5008 5.25 19.5008C5.05098 19.5008 4.86011 19.4218 4.71938 19.281C4.57865 19.1403 4.49958 18.9494 4.49958 18.7504C4.49958 18.5514 4.57865 18.3605 4.71938 18.2198L10.9397 12.0004L4.71938 5.78104C4.57865 5.64031 4.49958 5.44944 4.49958 5.25042C4.49958 5.05139 4.57865 4.86052 4.71938 4.71979C4.86011 4.57906 5.05098 4.5 5.25 4.5C5.44902 4.5 5.6399 4.57906 5.78063 4.71979L12 10.9401L18.2194 4.71979C18.3601 4.57906 18.551 4.5 18.75 4.5C18.949 4.5 19.1399 4.57906 19.2806 4.71979C19.4214 4.86052 19.5004 5.05139 19.5004 5.25042C19.5004 5.44944 19.4214 5.64031 19.2806 5.78104L13.0603 12.0004L19.2806 18.2198Z" fill="#0E1D29"/>
</svg>
