<svg width="144" height="40" viewBox="0 0 144 40" fill="none" xmlns="http://www.w3.org/2000/svg">
<path d="M10.7788 16.4741L17.4999 9.8839L24.1783 16.4531H24.157L17.4785 23.0432L10.7788 16.4741ZM13.5739 7.86908L7.77026 13.5777V16.4531V16.4741V19.3704L13.5526 25.058H21.4259L27.2295 19.3494V16.4741V16.4531V13.5568L21.4472 7.86908H13.5739Z" fill="#ED1C23"/>
<path d="M10.7788 23.5259L17.4999 16.9358L24.1783 23.505H24.157L17.4572 30.0951L10.7788 23.5259ZM13.5739 14.942L7.77026 20.6506V23.5259V23.5469V26.4432L13.5526 32.1309H21.4259L27.2295 26.4222V23.5469V23.5259V20.6296L21.4472 14.942H13.5739Z" fill="#ED1C23"/>
<path d="M48.6844 23.6055H44.0543C41.5366 23.6055 41.4939 21.7796 41.4939 21.7796V16.1548H44.0757V20.5413C44.0757 20.5413 44.0757 21.7586 46.38 21.7586C48.6844 21.7586 48.6844 20.5413 48.6844 20.5413V16.1548H51.2662V21.7586C51.2875 21.7796 51.2449 23.6055 48.6844 23.6055Z" fill="#ED1C23"/>
<path d="M63.3003 23.6475V16.1548H65.6047V21.8005H71.0669V23.6475H63.3003Z" fill="#ED1C23"/>
<path d="M74.8862 16.1548H72.6031V23.6265H74.8862V16.1548Z" fill="#ED1C23"/>
<path d="M108.577 20.4154H105.782L107.212 17.8758L108.577 20.4154ZM103.947 23.6475L104.822 22.1154H109.516L110.348 23.6475H113.25L108.748 16.1548H105.739L101.173 23.6265H103.947V23.6475Z" fill="#ED1C23"/>
<path d="M114.061 23.6475V16.1548H117.453L121.998 21.9265V16.1548H124.068V23.6475H120.697L116.194 17.9598V23.6475H114.061Z" fill="#ED1C23"/>
<path d="M125.689 23.6475V16.1548H127.951V19.303L132.325 16.1548H135.675L131.152 19.24L136.23 23.6475H132.709L129.061 20.3734L127.951 21.1289V23.6475H125.689Z" fill="#ED1C23"/>
<path d="M83.3569 20.982C83.3569 21.4438 82.9515 21.8006 82.4608 21.8006H79.1962C78.7055 21.8006 78.3001 21.4228 78.3001 20.9611V18.6524C78.3001 18.1907 78.7055 17.8129 79.1962 17.8129H82.4608C82.9515 17.8129 83.3569 18.1697 83.3569 18.6314H85.3839V17.624C85.3839 16.7635 84.6585 16.0499 83.7837 16.0499H77.8947C77.0199 16.0499 76.2944 16.7635 76.2944 17.624V22.0104C76.2944 22.8709 77.0199 23.5845 77.8947 23.5845H83.7837C84.6585 23.5845 85.3839 22.8709 85.3839 22.0104V20.982H83.3569Z" fill="#ED1C23"/>
<path d="M35.9876 18.4512H33.7046V19.9624H37.3318C37.3318 19.9624 37.9719 19.8784 37.9719 19.2278C37.9719 18.5772 37.3318 18.4512 37.3318 18.4512H35.5609V16.4574H38.42C38.42 16.4574 40.319 16.4994 40.319 19.2068C40.319 21.9142 38.356 22.0821 38.356 22.0821H33.7046V23.95H31.2295V16.4574H35.9663V18.4512H35.9876Z" fill="#ED1C23"/>
<path d="M56.7712 23.6475H52.6318V16.1548L57.0059 16.1339V17.6869H54.7869V19.1981H58.9262C58.9262 19.1981 59.5663 19.1141 59.5663 18.4635C59.5663 17.8129 58.9262 17.6869 58.9262 17.6869H56.8352V16.1548H59.9504C59.9504 16.1548 61.8067 15.924 61.8067 18.1067C61.8067 18.1067 61.764 19.8487 60.9319 19.8487C60.9319 19.8487 61.8067 20.0166 61.8067 21.6746C61.8067 21.6746 61.892 23.6265 59.9504 23.6265H56.6858V21.9265H58.9476C58.9476 21.9265 59.5877 21.8425 59.5877 21.1919C59.5877 20.5413 58.9476 20.4153 58.9476 20.4153H54.7869V21.9265H56.7712V23.6475Z" fill="#ED1C23"/>
<path d="M95.5616 23.6475H91.4222V16.1548L95.7963 16.1339V17.6869H93.5773V19.1981H97.7166C97.7166 19.1981 98.3567 19.1141 98.3567 18.4635C98.3567 17.8129 97.7166 17.6869 97.7166 17.6869H95.6256V16.1548H98.7408C98.7408 16.1548 100.597 15.924 100.597 18.1067C100.597 18.1067 100.554 19.8487 99.7223 19.8487C99.7223 19.8487 100.597 20.0166 100.597 21.6746C100.597 21.6746 100.682 23.6265 98.7408 23.6265H95.4763V21.9265H97.738C97.738 21.9265 98.3781 21.8425 98.3781 21.1919C98.3781 20.5413 97.738 20.4153 97.738 20.4153H93.5986V21.9265H95.5829V23.6475H95.5616Z" fill="#ED1C23"/>
</svg>
